<?xml version="1.0" standalone="no"?>
<!DOCTYPE svg PUBLIC "-//W3C//DTD SVG 20010904//EN"
 "http://www.w3.org/TR/2001/REC-SVG-20010904/DTD/svg10.dtd">
<svg version="1.0" xmlns="http://www.w3.org/2000/svg"
 width="88.000000pt" height="88.000000pt" viewBox="0 0 88.000000 88.000000"
 preserveAspectRatio="xMidYMid meet">

<g transform="translate(0.000000,88.000000) scale(0.100000,-0.100000)"
fill="#000000" stroke="none">
<path d="M0 440 l0 -440 440 0 440 0 0 440 0 440 -440 0 -440 0 0 -440z m380
75 c0 -124 9 -132 61 -55 29 42 39 50 67 50 17 0 32 -1 32 -3 0 -2 -18 -28
-40 -57 -22 -29 -40 -57 -40 -62 0 -5 17 -32 38 -61 58 -79 58 -77 19 -77 -30
0 -38 6 -71 55 -20 30 -43 55 -51 55 -11 0 -15 -13 -15 -55 0 -52 -1 -55 -25
-55 l-25 0 0 185 0 185 25 0 25 0 0 -105z"/>
</g>
</svg>
